<svg width="174" height="159" viewBox="0 0 174 159" fill="none" xmlns="http://www.w3.org/2000/svg">
<circle cx="143" cy="95" r="16.5" fill="#3291C1" stroke="white" stroke-width="3"/>
<mask id="path-2-inside-1" fill="white">
<path fill-rule="evenodd" clip-rule="evenodd" d="M174 145C174 129.536 160.121 117 143 117C125.879 117 112 129.536 112 145H174Z"/>
</mask>
<path fill-rule="evenodd" clip-rule="evenodd" d="M174 145C174 129.536 160.121 117 143 117C125.879 117 112 129.536 112 145H174Z" fill="#3291C1"/>
<path d="M174 145V148H177V145H174ZM112 145H109V148H112V145ZM143 120C158.759 120 171 131.473 171 145H177C177 127.599 161.483 114 143 114V120ZM115 145C115 131.473 127.241 120 143 120V114C124.517 114 109 127.599 109 145H115ZM112 148H174V142H112V148Z" fill="white" mask="url(#path-2-inside-1)"/>
<circle cx="143" cy="95" r="16.5" fill="#3291C1" stroke="white" stroke-width="3"/>
<circle cx="31" cy="95" r="16.5" fill="#3291C1" stroke="white" stroke-width="3"/>
<mask id="path-6-inside-2" fill="white">
<path fill-rule="evenodd" clip-rule="evenodd" d="M62 145C62 129.536 48.1208 117 31 117C13.8792 117 0 129.536 0 145H62Z"/>
</mask>
<path fill-rule="evenodd" clip-rule="evenodd" d="M62 145C62 129.536 48.1208 117 31 117C13.8792 117 0 129.536 0 145H62Z" fill="#3291C1"/>
<path d="M62 145V148H65V145H62ZM0 145H-3V148H0V145ZM31 120C46.7585 120 59 131.473 59 145H65C65 127.599 49.4831 114 31 114V120ZM3 145C3 131.473 15.2415 120 31 120V114C12.5169 114 -3 127.599 -3 145H3ZM0 148H62V142H0V148Z" fill="white" mask="url(#path-6-inside-2)"/>
<circle cx="31" cy="95" r="16.5" fill="#3291C1" stroke="white" stroke-width="3"/>
<mask id="path-9-inside-3" fill="white">
<path fill-rule="evenodd" clip-rule="evenodd" d="M62 145C62 129.536 48.1208 117 31 117C13.8792 117 0 129.536 0 145H62Z"/>
</mask>
<path fill-rule="evenodd" clip-rule="evenodd" d="M62 145C62 129.536 48.1208 117 31 117C13.8792 117 0 129.536 0 145H62Z" fill="#3291C1"/>
<path d="M62 145V148H65V145H62ZM0 145H-3V148H0V145ZM31 120C46.7585 120 59 131.473 59 145H65C65 127.599 49.4831 114 31 114V120ZM3 145C3 131.473 15.2415 120 31 120V114C12.5169 114 -3 127.599 -3 145H3ZM0 148H62V142H0V148Z" fill="white" mask="url(#path-9-inside-3)"/>
<circle cx="87" cy="89" r="23.5" fill="#3291C1" stroke="white" stroke-width="3"/>
<mask id="path-12-inside-4" fill="white">
<path fill-rule="evenodd" clip-rule="evenodd" d="M130 158.161C130 136.711 110.748 119.323 87 119.323C63.2518 119.323 44 136.711 44 158.161H130Z"/>
</mask>
<path fill-rule="evenodd" clip-rule="evenodd" d="M130 158.161C130 136.711 110.748 119.323 87 119.323C63.2518 119.323 44 136.711 44 158.161H130Z" fill="#3291C1"/>
<path d="M130 158.161V161.161H133V158.161H130ZM44 158.161H41V161.161H44V158.161ZM87 122.323C109.386 122.323 127 138.648 127 158.161H133C133 134.774 112.111 116.323 87 116.323V122.323ZM47 158.161C47 138.648 64.614 122.323 87 122.323V116.323C61.8895 116.323 41 134.774 41 158.161H47ZM44 161.161H130V155.161H44V161.161Z" fill="white" mask="url(#path-12-inside-4)"/>
<circle cx="87" cy="89" r="23.5" fill="#3291C1" stroke="white" stroke-width="3"/>
<mask id="path-15-inside-5" fill="white">
<path fill-rule="evenodd" clip-rule="evenodd" d="M174 145C174 129.536 160.121 117 143 117C125.879 117 112 129.536 112 145H174Z"/>
</mask>
<path fill-rule="evenodd" clip-rule="evenodd" d="M174 145C174 129.536 160.121 117 143 117C125.879 117 112 129.536 112 145H174Z" fill="#3291C1"/>
<path d="M174 145V148H177V145H174ZM112 145H109V148H112V145ZM143 120C158.759 120 171 131.473 171 145H177C177 127.599 161.483 114 143 114V120ZM115 145C115 131.473 127.241 120 143 120V114C124.517 114 109 127.599 109 145H115ZM112 148H174V142H112V148Z" fill="white" mask="url(#path-15-inside-5)"/>
<mask id="path-17-inside-6" fill="white">
<path fill-rule="evenodd" clip-rule="evenodd" d="M130 158.161C130 136.711 110.748 119.323 87 119.323C63.2518 119.323 44 136.711 44 158.161H130Z"/>
</mask>
<path fill-rule="evenodd" clip-rule="evenodd" d="M130 158.161C130 136.711 110.748 119.323 87 119.323C63.2518 119.323 44 136.711 44 158.161H130Z" fill="#3291C1"/>
<path d="M130 158.161V161.161H133V158.161H130ZM44 158.161H41V161.161H44V158.161ZM87 122.323C109.386 122.323 127 138.648 127 158.161H133C133 134.774 112.111 116.323 87 116.323V122.323ZM47 158.161C47 138.648 64.614 122.323 87 122.323V116.323C61.8895 116.323 41 134.774 41 158.161H47ZM44 161.161H130V155.161H44V161.161Z" fill="white" mask="url(#path-17-inside-6)"/>
<rect x="69" width="80" height="46" rx="7" fill="#3291C1"/>
<path d="M125.207 60L117 46H134L125.207 60Z" fill="#3291C1"/>
<path fill-rule="evenodd" clip-rule="evenodd" d="M75.5 0C71.9101 0 69 2.91015 69 6.5V39.5C69 43.0899 71.9101 46 75.5 46H115.823C116.229 46 116.595 46.2451 116.749 46.6204L121.413 57.9901C122.924 61.6731 128.121 61.7246 129.705 58.0722L134.678 46.6022C134.836 46.2366 135.197 46 135.595 46H142.5C146.09 46 149 43.0899 149 39.5V6.5C149 2.91015 146.09 0 142.5 0H75.5ZM134 43.0003C134 43.0003 134 43.0002 134 43.0001C134 43.0001 134 43 134 43H142.5C144.433 43 146 41.433 146 39.5V6.5C146 4.567 144.433 3 142.5 3H75.5C73.567 3 72 4.567 72 6.5V39.5C72 41.433 73.567 43 75.5 43H117.465C118.068 42.9861 118.645 43.3393 118.888 43.9307L124.189 56.8515C124.692 58.0791 126.425 58.0963 126.953 56.8788L132.578 43.9033C132.83 43.3231 133.404 42.9824 134 43.0003Z" fill="white"/>
<rect x="102" y="12" width="35" height="4" rx="2" fill="white"/>
<rect x="122" y="23" width="15" height="4" rx="2" fill="white"/>
<rect y="38" width="46" height="27" rx="7" fill="#3291C1"/>
<path d="M14 70L11 65H17L14 70Z" fill="#3291C1"/>
<path fill-rule="evenodd" clip-rule="evenodd" d="M40.2938 38C43.8836 38 46.7938 40.9102 46.7938 44.5V58.9562C46.7938 62.5461 43.8836 65.4562 40.2938 65.4562H19.7742C19.588 65.4562 19.4172 65.5597 19.331 65.7247L16.0992 71.9117C15.1641 73.7017 12.6024 73.7017 11.6674 71.9117L8.4355 65.7247C8.3493 65.5597 8.17852 65.4562 7.99232 65.4562H6.50001C2.91016 65.4562 1.14441e-05 62.5461 1.14441e-05 58.9562V44.5C1.14441e-05 40.9101 2.91017 38 6.50002 38H40.2938ZM9.17249 62.4562H6.50001C4.56701 62.4562 3.00001 60.8892 3.00001 58.9562V44.5C3.00001 42.567 4.56702 41 6.50002 41H40.2938C42.2268 41 43.7938 42.567 43.7938 44.5V58.9562C43.7938 60.8892 42.2268 62.4562 40.2938 62.4562H18.594C18.0426 62.4451 17.5057 62.7397 17.233 63.2617L14.3264 68.8259C14.1394 69.1839 13.6271 69.1839 13.4401 68.8259L10.5336 63.2617C10.2608 62.7397 9.72395 62.4451 9.17249 62.4562Z" fill="white"/>
</svg>
