<svg width="165" height="164" viewBox="0 0 165 164" fill="none" xmlns="http://www.w3.org/2000/svg">
<path d="M21.6608 65.5L69.2085 11.6546C74.7095 5.42497 84.3947 5.33115 90.0153 11.453L139.637 65.5V149.5C139.637 155.023 135.16 159.5 129.637 159.5H98.5V115C98.5 110.029 94.4706 106 89.5 106H71C66.0294 106 62 110.029 62 115V159.5H31.6608C26.138 159.5 21.6608 155.023 21.6608 149.5V65.5Z" fill="#3291C1"/>
<path d="M158 85.5L139.637 65.5M4 85.5L21.6608 65.5M21.6608 65.5L69.2085 11.6546C74.7095 5.42497 84.3947 5.33115 90.0153 11.453L139.637 65.5M21.6608 65.5V149.5C21.6608 155.023 26.138 159.5 31.6608 159.5H62V115C62 110.029 66.0294 106 71 106H89.5C94.4706 106 98.5 110.029 98.5 115V159.5H129.637C135.16 159.5 139.637 155.023 139.637 149.5V65.5" stroke="white" stroke-width="8" stroke-linecap="round" stroke-linejoin="round"/>
</svg>
