<svg width="136" height="131" viewBox="0 0 136 131" fill="none" xmlns="http://www.w3.org/2000/svg">
<path d="M0 10C0 5.58173 3.58172 2 8 2H25C29.4183 2 33 5.58172 33 10V16.2326V20.8372V120C33 124.418 29.4183 128 25 128H8C3.58172 128 0 124.418 0 120V20.8372V16.2326V10Z" fill="#3291C1"/>
<path d="M35 10C35 5.58173 38.5817 2 43 2H59C63.4183 2 67 5.58172 67 10V16.2326V20.8372V120C67 124.418 63.4183 128 59 128H43C38.5817 128 35 124.418 35 120V20.8372V16.2326V10Z" fill="#3291C1"/>
<path d="M69.8133 17.3192C68.5046 13.0992 70.8647 8.61729 75.0847 7.3086L91.0111 2.3696C95.2311 1.06091 99.713 3.421 101.022 7.64102L102.871 13.6037L104.236 18.0048L133.63 112.791C134.939 117.011 132.579 121.493 128.359 122.802L112.433 127.741C108.213 129.05 103.731 126.69 102.422 122.47L73.0273 27.683L71.6624 23.2818L69.8133 17.3192Z" fill="#3291C1"/>
<rect x="1" y="16" width="30" height="4" fill="white"/>
<rect x="36" y="16" width="30" height="4" fill="white"/>
<rect x="72.7388" y="22.5095" width="30.1612" height="3.77015" transform="rotate(-17.2294 72.7388 22.5095)" fill="white"/>
<rect x="1" y="22" width="30" height="4" fill="white"/>
<rect x="36" y="22" width="30" height="4" fill="white"/>
<rect x="74.5999" y="28.5111" width="30.1612" height="3.77015" transform="rotate(-17.2294 74.5999 28.5111)" fill="white"/>
<rect x="1" y="111" width="30" height="4" fill="white"/>
<rect x="36" y="111" width="30" height="4" fill="white"/>
<rect x="100.905" y="113.334" width="30.1612" height="3.77015" transform="rotate(-17.2294 100.905 113.334)" fill="white"/>
</svg>
