<svg width="101" height="101" viewBox="0 0 101 101" fill="none" xmlns="http://www.w3.org/2000/svg">
<circle cx="50.4712" cy="50.5" r="20" stroke="white" stroke-width="6"/>
<path d="M11.6488 73.3545L9.53395 71.3277L11.6488 73.3545L12.8017 72.1514C16.4578 68.3364 13.7539 62 8.46981 62H8C5.23858 62 3 59.7614 3 57V43.4839C3 41.0192 5.01829 39 7.50644 39C12.6827 39 15.3399 32.657 11.5199 29.0189C9.73012 27.3144 9.67799 24.4761 11.404 22.7069L20.7319 13.1458C22.618 11.2126 25.6985 11.1266 27.6894 12.9517L28.9456 14.1032C32.794 17.6309 39 14.9009 39 9.68029V8C39 5.23858 41.2386 3 44 3H57C59.7614 3 62 5.23858 62 8V8.52534C62 14.0367 68.8815 16.5434 72.4264 12.3233C74.2025 10.2089 77.4018 10.0512 79.3773 11.9807L89.113 21.4901C91.105 23.4356 91.1238 26.6336 89.1549 28.6025L88.5 29.2574C84.7202 33.0371 87.3972 39.5 92.7426 39.5H93C95.7614 39.5 98 41.7386 98 44.5V58.1522C98 60.5534 96.0534 62.5 93.6522 62.5C88.403 62.5 86.0804 68.8231 89.6197 72.3624C91.3718 74.1144 91.3879 76.9564 89.6998 78.6867L80.2681 88.3542C78.382 90.2874 75.3016 90.3734 73.3106 88.5483L72.0544 87.3968C68.206 83.8691 62 86.5991 62 91.8197V93C62 95.7614 59.7614 98 57 98H43.8836C41.1865 98 39 95.8135 39 93.1164V92.9489C39 87.3323 31.8931 84.8938 28.4448 89.3274C26.7116 91.5557 23.4251 91.7797 21.4056 89.8072L11.7651 80.3909C9.80287 78.4743 9.75101 75.3348 11.6488 73.3545Z" stroke="white" stroke-width="6" stroke-linecap="round" stroke-linejoin="round"/>
</svg>
