<svg width="93" height="92" viewBox="0 0 93 92" fill="none" xmlns="http://www.w3.org/2000/svg">
<path fill-rule="evenodd" clip-rule="evenodd" d="M40.9712 0C38.2098 0 35.9712 2.23858 35.9712 5V8.45643C35.9712 10.8253 34.3777 12.8804 32.2003 13.8132C30.0136 14.7499 27.4495 14.4581 25.7371 12.8069L23.4564 10.6075C21.4686 8.69068 18.3033 8.7482 16.3865 10.736L9.44503 17.9343C7.52821 19.9221 7.58572 23.0874 9.5735 25.0042L12.4854 27.8122C13.8643 29.1419 14.1889 31.1958 13.4756 32.9735C12.7551 34.7693 11.0676 36.0635 9.13269 36.0523L5.08672 36.0289C2.32535 36.0129 0.0738644 38.2385 0.0578994 40.9999L8.53566e-05 50.9997C-0.0158796 53.7611 2.20972 56.0126 4.97109 56.0286L8.5606 56.0493C10.8671 56.0627 12.8637 57.6154 13.7697 59.7365C14.6872 61.8848 14.3894 64.4029 12.759 66.0758L10.2513 68.649C8.32399 70.6267 8.36479 73.7922 10.3424 75.7195L17.504 82.6989C19.4816 84.6262 22.6472 84.5854 24.5745 82.6077L27.6582 79.4435C29.0064 78.0601 31.0784 77.7418 32.8696 78.4653C34.6703 79.1927 35.9712 80.8821 35.9712 82.8241V87C35.9712 89.7614 38.2098 92 40.9712 92H50.9712C53.7326 92 55.9712 89.7614 55.9712 87V83.4039C55.9712 81.1179 57.5075 79.1337 59.6125 78.242C61.7103 77.3534 64.1624 77.6448 65.8024 79.2262L68.6001 81.924C70.5879 83.8409 73.7532 83.7833 75.67 81.7956L82.6114 74.5972C84.5282 72.6094 84.4707 69.4441 82.483 67.5273L79.2557 64.4152C77.9123 63.1198 77.6042 61.1137 78.3187 59.3896C79.0254 57.6842 80.6423 56.4661 82.4883 56.4767L86.9697 56.5026C89.7311 56.5186 91.9826 54.293 91.9986 51.5316L92.0564 41.5318C92.0723 38.7704 89.8467 36.5189 87.0854 36.503L83.6379 36.483C81.2791 36.4694 79.2456 34.8608 78.3473 32.6797C77.4596 30.5245 77.7732 28.0198 79.4 26.3506L81.8052 23.8825C83.7325 21.9049 83.6917 18.7393 81.7141 16.812L74.5524 9.8327C72.5748 7.9054 69.4093 7.9462 67.482 9.92383L64.8838 12.5899C63.4318 14.0798 61.195 14.4065 59.2709 13.6154C57.3582 12.8291 55.9712 11.0316 55.9712 8.96363V5C55.9712 2.23858 53.7326 0 50.9712 0H40.9712ZM45.9712 66C57.0169 66 65.9712 57.0457 65.9712 46C65.9712 34.9543 57.0169 26 45.9712 26C34.9255 26 25.9712 34.9543 25.9712 46C25.9712 57.0457 34.9255 66 45.9712 66Z" fill="#3291C1"/>
</svg>
