<svg width="175" height="161" viewBox="0 0 175 161" fill="none" xmlns="http://www.w3.org/2000/svg">
<circle cx="144" cy="97" r="16.5" fill="#3291C1" stroke="white" stroke-width="3"/>
<mask id="path-2-inside-1" fill="white">
<path fill-rule="evenodd" clip-rule="evenodd" d="M175 147C175 131.536 161.121 119 144 119C126.879 119 113 131.536 113 147H175Z"/>
</mask>
<path fill-rule="evenodd" clip-rule="evenodd" d="M175 147C175 131.536 161.121 119 144 119C126.879 119 113 131.536 113 147H175Z" fill="#3291C1"/>
<path d="M175 147V150H178V147H175ZM113 147H110V150H113V147ZM144 122C159.759 122 172 133.473 172 147H178C178 129.599 162.483 116 144 116V122ZM116 147C116 133.473 128.241 122 144 122V116C125.517 116 110 129.599 110 147H116ZM113 150H175V144H113V150Z" fill="white" mask="url(#path-2-inside-1)"/>
<circle cx="144" cy="97" r="15" fill="#3291C1" stroke="white" stroke-width="6"/>
<circle cx="32" cy="97" r="16.5" fill="#3291C1" stroke="white" stroke-width="3"/>
<mask id="path-6-inside-2" fill="white">
<path fill-rule="evenodd" clip-rule="evenodd" d="M63 147C63 131.536 49.1208 119 32 119C14.8792 119 1 131.536 1 147H63Z"/>
</mask>
<path fill-rule="evenodd" clip-rule="evenodd" d="M63 147C63 131.536 49.1208 119 32 119C14.8792 119 1 131.536 1 147H63Z" fill="#3291C1"/>
<path d="M63 147V150H66V147H63ZM1 147H-2V150H1V147ZM32 122C47.7585 122 60 133.473 60 147H66C66 129.599 50.4831 116 32 116V122ZM4 147C4 133.473 16.2415 122 32 122V116C13.5169 116 -2 129.599 -2 147H4ZM1 150H63V144H1V150Z" fill="white" mask="url(#path-6-inside-2)"/>
<circle cx="32" cy="97" r="15" fill="#3291C1" stroke="white" stroke-width="6"/>
<mask id="path-9-inside-3" fill="white">
<path fill-rule="evenodd" clip-rule="evenodd" d="M63 147C63 131.536 49.1208 119 32 119C14.8792 119 1 131.536 1 147H63Z"/>
</mask>
<path fill-rule="evenodd" clip-rule="evenodd" d="M63 147C63 131.536 49.1208 119 32 119C14.8792 119 1 131.536 1 147H63Z" fill="#3291C1"/>
<path d="M63 147V153H69V147H63ZM1 147H-5V153H1V147ZM32 125C46.3962 125 57 135.41 57 147H69C69 127.662 51.8454 113 32 113V125ZM7 147C7 135.41 17.6038 125 32 125V113C12.1546 113 -5 127.662 -5 147H7ZM1 153H63V141H1V153Z" fill="white" mask="url(#path-9-inside-3)"/>
<circle cx="88" cy="91" r="23.5" fill="#3291C1" stroke="white" stroke-width="3"/>
<mask id="path-12-inside-4" fill="white">
<path fill-rule="evenodd" clip-rule="evenodd" d="M131 160.161C131 138.711 111.748 121.323 88 121.323C64.2518 121.323 45 138.711 45 160.161H131Z"/>
</mask>
<path fill-rule="evenodd" clip-rule="evenodd" d="M131 160.161C131 138.711 111.748 121.323 88 121.323C64.2518 121.323 45 138.711 45 160.161H131Z" fill="#3291C1"/>
<path d="M131 160.161V163.161H134V160.161H131ZM45 160.161H42V163.161H45V160.161ZM88 124.323C110.386 124.323 128 140.648 128 160.161H134C134 136.774 113.111 118.323 88 118.323V124.323ZM48 160.161C48 140.648 65.614 124.323 88 124.323V118.323C62.8895 118.323 42 136.774 42 160.161H48ZM45 163.161H131V157.161H45V163.161Z" fill="white" mask="url(#path-12-inside-4)"/>
<circle cx="88" cy="91" r="22" fill="#3291C1" stroke="white" stroke-width="6"/>
<mask id="path-15-inside-5" fill="white">
<path fill-rule="evenodd" clip-rule="evenodd" d="M175 147C175 131.536 161.121 119 144 119C126.879 119 113 131.536 113 147H175Z"/>
</mask>
<path fill-rule="evenodd" clip-rule="evenodd" d="M175 147C175 131.536 161.121 119 144 119C126.879 119 113 131.536 113 147H175Z" fill="#3291C1"/>
<path d="M175 147V153H181V147H175ZM113 147H107V153H113V147ZM144 125C158.396 125 169 135.41 169 147H181C181 127.662 163.845 113 144 113V125ZM119 147C119 135.41 129.604 125 144 125V113C124.155 113 107 127.662 107 147H119ZM113 153H175V141H113V153Z" fill="white" mask="url(#path-15-inside-5)"/>
<mask id="path-17-inside-6" fill="white">
<path fill-rule="evenodd" clip-rule="evenodd" d="M131 160.161C131 138.711 111.748 121.323 88 121.323C64.2518 121.323 45 138.711 45 160.161H131Z"/>
</mask>
<path fill-rule="evenodd" clip-rule="evenodd" d="M131 160.161C131 138.711 111.748 121.323 88 121.323C64.2518 121.323 45 138.711 45 160.161H131Z" fill="#3291C1"/>
<path d="M131 160.161V166.161C134.314 166.161 137 163.475 137 160.161H131ZM45 160.161H39C39 163.475 41.6863 166.161 45 166.161V160.161ZM88 127.323C109.024 127.323 125 142.585 125 160.161H137C137 134.838 114.473 115.323 88 115.323V127.323ZM51 160.161C51 142.585 66.9763 127.323 88 127.323V115.323C61.5272 115.323 39 134.838 39 160.161H51ZM45 166.161H131V154.161H45V166.161Z" fill="white" mask="url(#path-17-inside-6)"/>
<rect x="70" y="2" width="80" height="46" rx="7" fill="#3291C1"/>
<path d="M126.207 62L118 48H135L126.207 62Z" fill="#3291C1"/>
<path fill-rule="evenodd" clip-rule="evenodd" d="M76.5 0.5C72.0817 0.5 68.5 4.08172 68.5 8.5V41.5C68.5 45.9183 72.0817 49.5 76.5 49.5H115.817C116.223 49.5 116.589 49.7451 116.743 50.1204L121.025 60.5595C123.04 65.4701 129.97 65.5387 132.081 60.6688L136.663 50.1022C136.821 49.7366 137.182 49.5 137.58 49.5H143.5C147.918 49.5 151.5 45.9183 151.5 41.5V8.5C151.5 4.08172 147.918 0.5 143.5 0.5H76.5ZM135.023 43.5H143.5C144.605 43.5 145.5 42.6046 145.5 41.5V8.5C145.5 7.39543 144.605 6.5 143.5 6.5H76.5C75.3954 6.5 74.5 7.39543 74.5 8.5V41.5C74.5 42.6046 75.3954 43.5 76.5 43.5H118.43C119.636 43.4723 120.79 44.1787 121.276 45.3613L125.677 56.0891C126.012 56.9075 127.167 56.9189 127.519 56.1073L132.202 45.3066C132.702 44.1533 133.84 43.4732 135.023 43.5Z" fill="white"/>
<rect x="103" y="14" width="35" height="4" rx="2" fill="white"/>
<rect x="123" y="25" width="15" height="4" rx="2" fill="white"/>
<rect x="1" y="40" width="46" height="27" rx="7" fill="#3291C1"/>
<path d="M15 72L12 67H18L15 72Z" fill="#3291C1"/>
<path fill-rule="evenodd" clip-rule="evenodd" d="M41.2938 39C45.4359 39 48.7938 42.3579 48.7938 46.5V60.9562C48.7938 65.0984 45.4359 68.4562 41.2938 68.4562H21.3801C21.1939 68.4562 21.0231 68.5597 20.9369 68.7247L17.9855 74.3747C16.6765 76.8807 13.0901 76.8807 11.781 74.3747L8.82965 68.7247C8.74345 68.5597 8.57267 68.4562 8.38647 68.4562H7.50001C3.35787 68.4562 1.14441e-05 65.0984 1.14441e-05 60.9562V46.5C1.14441e-05 42.3579 3.35789 39 7.50002 39H41.2938ZM10.1515 63.4562H7.50001C6.1193 63.4562 5.00001 62.337 5.00001 60.9562V46.5C5.00001 45.1193 6.1193 44 7.50002 44H41.2938C42.6745 44 43.7938 45.1193 43.7938 46.5V60.9562C43.7938 62.337 42.6745 63.4562 41.2938 63.4562H19.615C18.6959 63.4376 17.8011 63.9286 17.3466 64.7987L15.3264 68.6661C15.1394 69.0241 14.6271 69.0241 14.4401 68.6661L12.4199 64.7987C11.9654 63.9286 11.0706 63.4376 10.1515 63.4562Z" fill="white"/>
</svg>
