<svg width="167" height="166" viewBox="0 0 167 166" fill="none" xmlns="http://www.w3.org/2000/svg">
<path d="M23.6608 65.5L71.2085 11.6546C76.7095 5.42497 86.3947 5.33115 92.0153 11.453L141.637 65.5V149.5C141.637 155.023 137.16 159.5 131.637 159.5H100.5V115C100.5 110.029 96.4706 106 91.5 106H73C68.0294 106 64 110.029 64 115V159.5H33.6608C28.138 159.5 23.6608 155.023 23.6608 149.5V65.5Z" fill="#3291C1"/>
<path d="M160 85.5L141.637 65.5M6 85.5L23.6608 65.5M23.6608 65.5L71.2085 11.6546C76.7095 5.42497 86.3947 5.33115 92.0153 11.453L141.637 65.5M23.6608 65.5V149.5C23.6608 155.023 28.138 159.5 33.6608 159.5H64V115C64 110.029 68.0294 106 73 106H91.5C96.4706 106 100.5 110.029 100.5 115V159.5H131.637C137.16 159.5 141.637 155.023 141.637 149.5V65.5" stroke="#3291C1" stroke-width="12" stroke-linecap="round" stroke-linejoin="round"/>
</svg>
