<svg width="145" height="142" viewBox="0 0 145 142" fill="none" xmlns="http://www.w3.org/2000/svg">
<path d="M8 5.19366H26.8369C29.5983 5.19366 31.8369 7.43224 31.8369 10.1937V17.7379V22.767V131.806C31.8369 134.568 29.5983 136.806 26.8369 136.806H8C5.23857 136.806 3 134.568 3 131.806V22.767V17.7379V10.1937C3 7.43224 5.23858 5.19366 8 5.19366Z" stroke="white" stroke-width="6"/>
<path d="M45.0701 5.19366H63.907C66.6684 5.19366 68.907 7.43224 68.907 10.1937V17.7379V37.3969V131.806C68.907 134.568 66.6684 136.806 63.907 136.806H45.0701C42.3086 136.806 40.0701 134.568 40.0701 131.806V22.767V17.7379V10.1937C40.0701 7.43224 42.3086 5.19366 45.0701 5.19366Z" stroke="white" stroke-width="6"/>
<path d="M80.4018 11.0132L98.4254 5.29168C101.057 4.45617 103.84 5.92127 104.641 8.56407L106.819 15.7545L107.547 18.1561L108.274 20.5578L139.821 124.689C140.622 127.332 139.137 130.151 136.505 130.987L118.482 136.708C115.85 137.544 113.067 136.079 112.266 133.436L80.7194 29.305L79.9918 26.9033L79.2642 24.5016L77.0859 17.3112C76.2852 14.6684 77.7698 11.8487 80.4018 11.0132Z" stroke="white" stroke-width="6"/>
<rect x="1.33984" y="17.2808" width="32.1571" height="4.11466" fill="white"/>
<rect x="38.4099" y="17.2808" width="32.1571" height="4.11466" fill="white"/>
<rect x="1.33984" y="24.1385" width="32.1571" height="4.11467" fill="white"/>
<rect x="38.4099" y="24.1385" width="32.1571" height="4.11467" fill="white"/>
<rect x="1.33984" y="121.062" width="32.1571" height="4.11467" fill="white"/>
<rect x="38.4099" y="121.062" width="32.1571" height="4.11467" fill="white"/>
<rect width="32.2246" height="4.10641" transform="matrix(0.953128 -0.302566 0.28994 0.957045 107.582 123.69)" fill="white"/>
<rect width="32.2246" height="4.10641" transform="matrix(0.953128 -0.302567 0.28994 0.957045 79.053 32.517)" fill="white"/>
<rect width="32.2246" height="4.10642" transform="matrix(0.953128 -0.302567 0.28994 0.957045 77.7131 25.2021)" fill="white"/>
</svg>
