<svg width="241" height="329" viewBox="0 0 241 329" fill="none" xmlns="http://www.w3.org/2000/svg">
<path d="M217.55 86.1105V47C217.55 29.3269 203.223 15 185.55 15H47C29.3269 15 15 29.3269 15 47V282C15 299.673 29.3269 314 47 314H185.55C203.223 314 217.55 299.673 217.55 282V237.85" stroke="#FF5C5C" stroke-width="30" stroke-linecap="round"/>
<path fill-rule="evenodd" clip-rule="evenodd" d="M235.775 173.351C241.078 168.227 241.062 159.723 235.74 154.619L170.973 92.5149C162.708 84.5898 148.975 90.4475 148.975 101.898V126.406H91.5109C80.4652 126.406 71.5109 135.36 71.5109 146.406V181.875C71.5109 192.92 80.4652 201.875 91.5109 201.875H148.975V226.581C148.975 238.055 162.756 243.903 171.008 235.93L235.775 173.351Z" fill="#FF5C5C"/>
</svg>
